<svg width="352.72548828124997px" height="74px" xmlns="http://www.w3.org/2000/svg" viewBox="73.63725585937502 38 352.72548828124997 74" style="background: rgb(253, 253, 253);" preserveAspectRatio="xMidYMid"><defs><linearGradient id="editing-outline-gradient" x1="1.4975640502598244" x2="-0.4975640502598243" y1="0.5697564737441249" y2="0.43024352625587514"><stop offset="0" stop-color="#ededed"></stop><stop offset="1" stop-color="#e0e2e4"></stop></linearGradient><filter id="editing-outline" x="-100%" y="-100%" width="300%" height="300%"><feMorphology in="SourceGraphic" operator="dilate" radius="1" result="outline"></feMorphology><feComposite operator="out" in="outline" in2="SourceAlpha"></feComposite></filter></defs><g filter="url(#editing-outline)"><g transform="translate(127.00502836704254, 90.28000164031982)"><path d="M20.00-8.19L20.00-1.12L20.00-1.12Q19.12-0.70 18.31-0.41L18.31-0.41L18.31-0.41Q17.50-0.12 16.70 0.06L16.70 0.06L16.70 0.06Q15.91 0.24 15.10 0.33L15.10 0.33L15.10 0.33Q14.29 0.41 13.43 0.41L13.43 0.41L13.43 0.41Q11.90 0.41 10.45 0.08L10.45 0.08L10.45 0.08Q9.01-0.26 7.72-0.90L7.72-0.90L7.72-0.90Q6.43-1.54 5.36-2.51L5.36-2.51L5.36-2.51Q4.28-3.47 3.50-4.73L3.50-4.73L3.50-4.73Q2.72-5.99 2.29-7.54L2.29-7.54L2.29-7.54Q1.86-9.08 1.86-10.91L1.86-10.91L1.86-10.91Q1.86-12.88 2.33-14.53L2.33-14.53L2.33-14.53Q2.80-16.18 3.63-17.51L3.63-17.51L3.63-17.51Q4.47-18.83 5.62-19.82L5.62-19.82L5.62-19.82Q6.78-20.81 8.17-21.48L8.17-21.48L8.17-21.48Q9.57-22.15 11.13-22.48L11.13-22.48L11.13-22.48Q12.70-22.81 14.35-22.81L14.35-22.81L14.35-22.81Q17.12-22.81 19.62-21.98L19.62-21.98L19.59-16.21L18.97-16.21L17.10-20.50L17.10-20.50Q15.61-20.98 13.96-20.98L13.96-20.98L13.96-20.98Q12.28-20.98 10.72-20.41L10.72-20.41L10.72-20.41Q9.16-19.84 7.96-18.65L7.96-18.65L7.96-18.65Q6.77-17.45 6.05-15.58L6.05-15.58L6.05-15.58Q5.33-13.70 5.33-11.10L5.33-11.10L5.33-11.10Q5.33-8.66 6.02-6.82L6.02-6.82L6.02-6.82Q6.72-4.98 7.92-3.74L7.92-3.74L7.92-3.74Q9.13-2.50 10.73-1.87L10.73-1.87L10.73-1.87Q12.34-1.24 14.14-1.24L14.14-1.24L14.14-1.24Q15.71-1.24 17.21-1.68L17.21-1.68L17.21-9.02L13.27-9.79L13.27-10.73L20.00-10.73L20.62-10.11L20.00-8.19ZM25.79-3.41L25.79-3.41L25.79-3.41Q26.58-3.41 27.13-2.85L27.13-2.85L27.13-2.85Q27.69-2.30 27.69-1.51L27.69-1.51L27.69-1.51Q27.69-0.71 27.13-0.15L27.13-0.15L27.13-0.15Q26.58 0.41 25.79 0.41L25.79 0.41L25.79 0.41Q24.98 0.41 24.42-0.15L24.42-0.15L24.42-0.15Q23.87-0.71 23.87-1.51L23.87-1.51L23.87-1.51Q23.87-2.32 24.42-2.86L24.42-2.86L24.42-2.86Q24.98-3.41 25.79-3.41ZM47.04 0L31.09 0L31.09-0.62L33.88-1.71L33.88-20.62L31.09-21.71L31.09-22.33L43.40-22.33L46.27-22.72L46.74-22.33L46.74-16.24L46.12-16.24L44.20-20.71L36.83-20.71L36.83-12.19L43.11-12.49L43.70-12.28L43.40-10.26L36.83-10.50L36.83-1.60L44.50-1.60L46.42-6.07L47.04-6.07L47.04 0ZM52.39-3.41L52.39-3.41L52.39-3.41Q53.18-3.41 53.73-2.85L53.73-2.85L53.73-2.85Q54.28-2.30 54.28-1.51L54.28-1.51L54.28-1.51Q54.28-0.71 53.73-0.15L53.73-0.15L53.73-0.15Q53.18 0.41 52.39 0.41L52.39 0.41L52.39 0.41Q51.57 0.41 51.02-0.15L51.02-0.15L51.02-0.15Q50.47-0.71 50.47-1.51L50.47-1.51L50.47-1.51Q50.47-2.32 51.02-2.86L51.02-2.86L51.02-2.86Q51.57-3.41 52.39-3.41ZM66.06-21.71L63.42-20.62L63.42-1.71L66.21-0.62L66.21 0L57.84 0L57.84-0.62L60.47-1.71L60.47-20.62L57.69-21.71L57.69-22.33L66.06-22.33L66.06-21.71ZM71.54-3.41L71.54-3.41L71.54-3.41Q72.32-3.41 72.88-2.85L72.88-2.85L72.88-2.85Q73.43-2.30 73.43-1.51L73.43-1.51L73.43-1.51Q73.43-0.71 72.88-0.15L72.88-0.15L72.88-0.15Q72.32 0.41 71.54 0.41L71.54 0.41L71.54 0.41Q70.72 0.41 70.17-0.15L70.17-0.15L70.17-0.15Q69.61-0.71 69.61-1.51L69.61-1.51L69.61-1.51Q69.61-2.32 70.17-2.86L70.17-2.86L70.17-2.86Q70.72-3.41 71.54-3.41ZM75.27-16.06L75.27-22.33L75.74-22.72L78.62-22.33L90.56-22.33L93.44-22.72L93.91-22.33L93.91-16.06L93.29-16.06L91.40-20.68L86.13-20.89L86.13-1.71L88.91-0.62L88.91 0L80.71 0L80.71-0.62L83.34-1.71L83.34-20.89L77.88-20.65L75.90-16.06L75.27-16.06ZM96.88-1.51L96.88-1.51L96.88-1.51Q96.88-2.30 97.44-2.85L97.44-2.85L97.44-2.85Q98.00-3.41 98.80-3.41L98.80-3.41L98.80-3.41Q99.81-3.41 100.28-2.69L100.28-2.69L100.28-2.69Q100.75-1.97 100.75-0.86L100.75-0.86L100.75-0.86Q100.75 1.17 99.46 2.79L99.46 2.79L99.46 2.79Q98.18 4.42 96.25 4.96L96.25 4.96L95.77 4.03L95.77 4.03Q97.06 3.42 97.94 2.54L97.94 2.54L97.94 2.54Q98.83 1.67 98.83 0.68L98.83 0.68L98.80 0.41L98.80 0.41Q98.00 0.41 97.44-0.15L97.44-0.15L97.44-0.15Q96.88-0.71 96.88-1.51ZM132.99-8.19L132.99-1.12L132.99-1.12Q132.11-0.70 131.30-0.41L131.30-0.41L131.30-0.41Q130.49-0.12 129.70 0.06L129.70 0.06L129.70 0.06Q128.90 0.24 128.09 0.33L128.09 0.33L128.09 0.33Q127.28 0.41 126.42 0.41L126.42 0.41L126.42 0.41Q124.89 0.41 123.45 0.08L123.45 0.08L123.45 0.08Q122.00-0.26 120.72-0.90L120.72-0.90L120.72-0.90Q119.43-1.54 118.35-2.51L118.35-2.51L118.35-2.51Q117.28-3.47 116.50-4.73L116.50-4.73L116.50-4.73Q115.72-5.99 115.29-7.54L115.29-7.54L115.29-7.54Q114.86-9.08 114.86-10.91L114.86-10.91L114.86-10.91Q114.86-12.88 115.33-14.53L115.33-14.53L115.33-14.53Q115.80-16.18 116.63-17.51L116.63-17.51L116.63-17.51Q117.46-18.83 118.62-19.82L118.62-19.82L118.62-19.82Q119.78-20.81 121.17-21.48L121.17-21.48L121.17-21.48Q122.56-22.15 124.13-22.48L124.13-22.48L124.13-22.48Q125.70-22.81 127.35-22.81L127.35-22.81L127.35-22.81Q130.12-22.81 132.61-21.98L132.61-21.98L132.58-16.21L131.96-16.21L130.10-20.50L130.10-20.50Q128.60-20.98 126.95-20.98L126.95-20.98L126.95-20.98Q125.27-20.98 123.71-20.41L123.71-20.41L123.71-20.41Q122.15-19.84 120.96-18.65L120.96-18.65L120.96-18.65Q119.76-17.45 119.04-15.58L119.04-15.58L119.04-15.58Q118.32-13.70 118.32-11.10L118.32-11.10L118.32-11.10Q118.32-8.66 119.02-6.82L119.02-6.82L119.02-6.82Q119.72-4.98 120.92-3.74L120.92-3.74L120.92-3.74Q122.12-2.50 123.73-1.87L123.73-1.87L123.73-1.87Q125.33-1.24 127.13-1.24L127.13-1.24L127.13-1.24Q128.71-1.24 130.21-1.68L130.21-1.68L130.21-9.02L126.27-9.79L126.27-10.73L132.99-10.73L133.61-10.11L132.99-8.19ZM138.41-13.08L135.63-14.17L135.63-14.79L140.89-15.88L141.20-15.56L141.20-5.48L141.20-5.48Q141.20-3.31 141.95-2.46L141.95-2.46L141.95-2.46Q142.71-1.60 144.48-1.60L144.48-1.60L144.48-1.60Q146.57-1.60 148.14-2.92L148.14-2.92L148.14-13.08L145.36-14.17L145.36-14.79L150.63-15.88L150.93-15.56L150.93-2.10L153.73-1.33L153.73-0.77L148.46 0.38L148.14 0.06L148.14-1.74L148.14-1.74Q147.10-0.74 145.72-0.18L145.72-0.18L145.72-0.18Q144.34 0.38 142.97 0.38L142.97 0.38L142.97 0.38Q142.06 0.38 141.26 0.09L141.26 0.09L141.26 0.09Q140.45-0.20 139.81-0.78L139.81-0.78L139.81-0.78Q139.17-1.36 138.79-2.33L138.79-2.33L138.79-2.33Q138.41-3.30 138.41-4.56L138.41-4.56L138.41-13.08ZM161.31-1.71L163.95-0.62L163.95 0L155.74 0L155.74-0.62L158.53-1.71L158.53-13.08L155.74-14.17L155.74-14.79L161.01-15.88L161.31-15.56L161.31-13.73L161.31-13.73Q162.39-14.73 163.82-15.30L163.82-15.30L163.82-15.30Q165.26-15.88 166.66-15.88L166.66-15.88L166.66-15.88Q168.68-15.88 170.02-14.64L170.02-14.64L170.02-14.64Q171.36-13.40 171.36-10.94L171.36-10.94L171.36-1.71L174.15-0.62L174.15 0L165.93 0L165.93-0.62L168.58-1.71L168.58-10.02L168.58-10.02Q168.58-12.20 167.80-13.05L167.80-13.05L167.80-13.05Q167.02-13.90 165.13-13.90L165.13-13.90L165.13-13.90Q162.87-13.90 161.31-12.55L161.31-12.55L161.31-1.71ZM177.87-13.08L175.09-14.17L175.09-14.79L180.35-15.88L180.66-15.56L180.66-5.48L180.66-5.48Q180.66-3.31 181.41-2.46L181.41-2.46L181.41-2.46Q182.17-1.60 183.94-1.60L183.94-1.60L183.94-1.60Q186.03-1.60 187.60-2.92L187.60-2.92L187.60-13.08L184.82-14.17L184.82-14.79L190.09-15.88L190.39-15.56L190.39-2.10L193.19-1.33L193.19-0.77L187.92 0.38L187.60 0.06L187.60-1.74L187.60-1.74Q186.56-0.74 185.18-0.18L185.18-0.18L185.18-0.18Q183.81 0.38 182.43 0.38L182.43 0.38L182.43 0.38Q181.52 0.38 180.72 0.09L180.72 0.09L180.72 0.09Q179.92-0.20 179.27-0.78L179.27-0.78L179.27-0.78Q178.63-1.36 178.25-2.33L178.25-2.33L178.25-2.33Q177.87-3.30 177.87-4.56L177.87-4.56L177.87-13.08ZM199.85 6.04L203.26 7.13L203.26 7.75L194.26 7.75L194.26 7.13L197.06 6.04L197.06-13.08L194.26-14.17L194.26-14.79L199.53-15.88L199.85-15.56L199.85-14.02L199.85-14.02Q200.70-15.06 201.67-15.47L201.67-15.47L201.67-15.47Q202.64-15.88 203.94-15.88L203.94-15.88L203.94-15.88Q205.19-15.88 206.38-15.31L206.38-15.31L206.38-15.31Q207.57-14.74 208.50-13.72L208.50-13.72L208.50-13.72Q209.43-12.70 210.00-11.14L210.00-11.14L210.00-11.14Q210.57-9.58 210.57-7.75L210.57-7.75L210.57-7.75Q210.57-5.68 209.93-4.07L209.93-4.07L209.93-4.07Q209.30-2.47 208.23-1.52L208.23-1.52L208.23-1.52Q207.16-0.58 205.87-0.10L205.87-0.10L205.87-0.10Q204.59 0.38 203.17 0.38L203.17 0.38L203.17 0.38Q201.36 0.38 199.85-0.27L199.85-0.27L199.85 6.04ZM203.29-14.32L203.29-14.32L203.29-14.32Q202.33-14.32 201.41-13.88L201.41-13.88L201.41-13.88Q200.49-13.44 199.85-12.65L199.85-12.65L199.85-3.04L199.85-3.04Q200.29-2.18 201.19-1.68L201.19-1.68L201.19-1.68Q202.09-1.18 203.17-1.18L203.17-1.18L203.17-1.18Q203.82-1.18 204.41-1.39L204.41-1.39L204.41-1.39Q205.00-1.60 205.56-2.10L205.56-2.10L205.56-2.10Q206.12-2.60 206.53-3.35L206.53-3.35L206.53-3.35Q206.93-4.09 207.18-5.21L207.18-5.21L207.18-5.21Q207.42-6.34 207.42-7.75L207.42-7.75L207.42-7.75Q207.42-10.69 206.33-12.50L206.33-12.50L206.33-12.50Q205.24-14.32 203.29-14.32ZM215.23-13.08L212.44-14.17L212.44-14.79L217.71-15.88L218.01-15.56L218.01-5.48L218.01-5.48Q218.01-3.31 218.77-2.46L218.77-2.46L218.77-2.46Q219.53-1.60 221.30-1.60L221.30-1.60L221.30-1.60Q223.39-1.60 224.96-2.92L224.96-2.92L224.96-13.08L222.18-14.17L222.18-14.79L227.44-15.88L227.75-15.56L227.75-2.10L230.55-1.33L230.55-0.77L225.28 0.38L224.96 0.06L224.96-1.74L224.96-1.74Q223.92-0.74 222.54-0.18L222.54-0.18L222.54-0.18Q221.16 0.38 219.79 0.38L219.79 0.38L219.79 0.38Q218.88 0.38 218.07 0.09L218.07 0.09L218.07 0.09Q217.27-0.20 216.63-0.78L216.63-0.78L216.63-0.78Q215.99-1.36 215.61-2.33L215.61-2.33L215.61-2.33Q215.23-3.30 215.23-4.56L215.23-4.56L215.23-13.08ZM238.13-1.71L241.70-0.62L241.70 0L232.56 0L232.56-0.62L235.35-1.71L235.35-13.08L232.56-14.17L232.56-14.79L237.83-15.88L238.13-15.56L238.13-13.70L238.13-13.70Q240.43-15.88 244.19-15.88L244.19-15.88L244.19-12.52L243.56-12.31L241.35-13.52L241.35-13.52Q240.67-13.52 239.80-13.22L239.80-13.22L239.80-13.22Q238.92-12.93 238.13-12.37L238.13-12.37L238.13-1.71Z" fill="url(#editing-outline-gradient)"></path></g></g><style>text {
  font-size: 64px;
  font-family: Arial Black;
  dominant-baseline: central;
  text-anchor: middle;
}</style></svg>