<svg width="310.6783935546875px" height="65.6px" xmlns="http://www.w3.org/2000/svg" viewBox="94.66080322265626 42.2 310.6783935546875 65.6" style="background: rgba(0, 0, 0, 0);" preserveAspectRatio="xMidYMid"><defs><linearGradient id="editing-outline-gradient" x1="-0.41354545764260087" x2="1.4135454576426008" y1="0.09326335692419985" y2="0.9067366430758002"><stop offset="0" stop-color="#ee4208"></stop><stop offset="1" stop-color="#4139ff"></stop></linearGradient><filter id="editing-outline" x="-100%" y="-100%" width="300%" height="300%"><feMorphology in="SourceGraphic" operator="dilate" radius="1" result="outline"></feMorphology><feComposite operator="out" in="outline" in2="SourceAlpha"></feComposite></filter></defs><g filter="url(#editing-outline)"><g transform="translate(143.28495174646378, 87.79000091552734)"><path d="M12.24-9.34L18.10-9.86L18.10-9.86Q16.01-5.28 16.01 0.03L16.01 0.03L16.01 0.03Q15.23 0.58 14.08 0.58L14.08 0.58L14.08 0.58Q12.93 0.58 12.21 0.04L12.21 0.04L12.21 0.04Q11.48-0.49 11.34-1.04L11.34-1.04L11.34-1.04Q10.61-0.29 9.44 0.15L9.44 0.15L9.44 0.15Q8.27 0.58 7.02 0.58L7.02 0.58L7.02 0.58Q5.77 0.58 4.68 0.17L4.68 0.17L4.68 0.17Q3.60-0.23 2.76-1.13L2.76-1.13L2.76-1.13Q0.90-3.10 0.90-6.84L0.90-6.84L0.90-6.84Q0.90-12.64 4.00-16.12L4.00-16.12L4.00-16.12Q7.19-19.72 12.85-19.72L12.85-19.72L12.85-19.72Q16.76-19.72 18.15-17.69L18.15-17.69L18.15-17.69Q18.59-17.05 18.59-16.28L18.59-16.28L18.59-16.28Q18.59-15.52 18.26-14.86L18.26-14.86L18.26-14.86Q17.92-14.21 17.40-13.69L17.40-13.69L17.40-13.69Q16.15-12.53 14.62-12.53L14.62-12.53L14.62-12.53Q14.01-12.53 13.43-12.73L13.43-12.73L13.43-12.73Q13.54-13.60 13.54-14.62L13.54-14.62L13.54-14.62Q13.54-15.63 13.47-16.10L13.47-16.10L13.47-16.10Q13.40-16.56 13.22-16.94L13.22-16.94L13.22-16.94Q12.85-17.72 12.02-17.72L12.02-17.72L12.02-17.72Q11.19-17.72 10.28-16.83L10.28-16.83L10.28-16.83Q9.37-15.95 8.64-14.50L8.64-14.50L8.64-14.50Q7.05-11.25 7.05-7.34L7.05-7.34L7.05-7.34Q7.05-5.54 7.74-4.26L7.74-4.26L7.74-4.26Q8.50-2.87 9.83-2.87L9.83-2.87L9.83-2.87Q10.29-2.87 10.72-3.10L10.72-3.10L10.72-3.10Q11.14-3.33 11.31-3.51L11.31-3.51L12.24-9.34ZM18.65-1.71L18.65-1.71L18.65-1.71Q18.65-2.81 19.50-3.42L19.50-3.42L19.50-3.42Q20.36-4.03 21.58-4.03L21.58-4.03L21.58-4.03Q22.79-4.03 23.53-3.42L23.53-3.42L23.53-3.42Q24.27-2.81 24.27-1.71L24.27-1.71L24.27-1.71Q24.27-0.61 23.45-0.01L23.45-0.01L23.45-0.01Q22.62 0.58 21.40 0.58L21.40 0.58L21.40 0.58Q20.18 0.58 19.42-0.01L19.42-0.01L19.42-0.01Q18.65-0.61 18.65-1.71ZM32.97 0L26.65 0L30.33-19.14L36.71-19.14L32.97 0ZM36.48-1.71L36.48-1.71L36.48-1.71Q36.48-2.81 37.34-3.42L37.34-3.42L37.34-3.42Q38.19-4.03 39.41-4.03L39.41-4.03L39.41-4.03Q40.63-4.03 41.37-3.42L41.37-3.42L41.37-3.42Q42.11-2.81 42.11-1.71L42.11-1.71L42.11-1.71Q42.11-0.61 41.28-0.01L41.28-0.01L41.28-0.01Q40.45 0.58 39.24 0.58L39.24 0.58L39.24 0.58Q38.02 0.58 37.25-0.01L37.25-0.01L37.25-0.01Q36.48-0.61 36.48-1.71ZM57.19-4.47L57.19-4.47L57.19-4.47Q57.74-3.77 57.74-2.64L57.74-2.64L57.74-2.64Q57.74-1.07 56.58-0.25L56.58-0.25L56.58-0.25Q55.42 0.58 53.59 0.58L53.59 0.58L53.59 0.58Q52.55 0.58 50.95 0.35L50.95 0.35L50.95 0.35Q47.82-0.15 46.86-0.15L46.86-0.15L46.86-0.15Q45.91-0.15 45.53-0.10L45.53-0.10L45.53-0.10Q45.15-0.06 44.54 0L44.54 0L48.11-19.14L60.61-19.14L60.61-19.14Q60.61-17.37 59.75-16.44L59.75-16.44L59.75-16.44Q58.90-15.52 57.22-15.52L57.22-15.52L57.22-15.52Q55.54-15.52 53.82-16.30L53.82-16.30L52.93-11.22L58.09-11.22L58.09-11.22Q58.09-9.69 57.33-8.83L57.33-8.83L57.33-8.83Q56.58-7.98 55.32-7.98L55.32-7.98L55.32-7.98Q54.06-7.98 53.27-8.27L53.27-8.27L53.27-8.27Q52.49-8.55 52.40-8.64L52.40-8.64L51.36-3.16L51.36-3.16Q52.06-3.07 53.36-3.07L53.36-3.07L53.36-3.07Q55.59-3.07 57.19-4.47ZM59.54-1.71L59.54-1.71L59.54-1.71Q59.54-2.81 60.39-3.42L60.39-3.42L60.39-3.42Q61.25-4.03 62.47-4.03L62.47-4.03L62.47-4.03Q63.68-4.03 64.42-3.42L64.42-3.42L64.42-3.42Q65.16-2.81 65.16-1.71L65.16-1.71L65.16-1.71Q65.16-0.61 64.34-0.01L64.34-0.01L64.34-0.01Q63.51 0.58 62.29 0.58L62.29 0.58L62.29 0.58Q61.07 0.58 60.31-0.01L60.31-0.01L60.31-0.01Q59.54-0.61 59.54-1.71ZM70.18-14.12L70.18-14.12L70.18-14.12Q69.19-14.88 69.19-16.49L69.19-16.49L69.19-16.49Q69.19-18.10 70.25-18.94L70.25-18.94L70.25-18.94Q71.31-19.78 73.14-19.78L73.14-19.78L73.14-19.78Q74.30-19.78 77.05-19.37L77.05-19.37L79.03-19.08L79.03-19.08Q80.01-18.97 81.04-18.97L81.04-18.97L81.04-18.97Q82.07-18.97 82.77-19.40L82.77-19.40L82.77-19.40Q83.81-18.47 83.81-17.14L83.81-17.14L83.81-17.14Q83.81-15.81 82.62-14.85L82.62-14.85L82.62-14.85Q81.40-13.83 79.84-13.83L79.84-13.83L79.84-13.83Q79.08-13.83 77.87-14.04L77.87-14.04L77.87-14.04Q76.44-9.57 76.44-6.47L76.44-6.47L76.44-6.47Q76.44-3.36 78.01-1.74L78.01-1.74L78.01-1.74Q77.29-0.43 76.21 0.07L76.21 0.07L76.21 0.07Q75.14 0.58 73.53 0.58L73.53 0.58L73.53 0.58Q71.92 0.58 70.92-0.30L70.92-0.30L70.92-0.30Q69.92-1.19 69.92-3.02L69.92-3.02L69.92-3.02Q69.92-5.13 71.08-8.61L71.08-8.61L71.08-8.61Q72.24-12.06 73.98-14.70L73.98-14.70L73.98-14.70Q73.14-14.79 72.27-14.79L72.27-14.79L72.27-14.79Q70.47-14.79 70.18-14.12ZM79.17 3.74L79.17 3.74L79.17 3.74Q81.40 1.33 81.40-1.68L81.40-1.68L81.40-1.68Q81.40-2.61 81.08-3.48L81.08-3.48L81.08-3.48Q81.43-3.71 82.13-3.87L82.13-3.87L82.13-3.87Q82.82-4.03 83.35-4.03L83.35-4.03L83.35-4.03Q84.62-4.03 85.38-3.35L85.38-3.35L85.38-3.35Q86.13-2.67 86.13-1.48L86.13-1.48L86.13-1.48Q86.13-0.29 85.67 0.67L85.67 0.67L85.67 0.67Q85.20 1.62 84.42 2.35L84.42 2.35L84.42 2.35Q82.74 3.92 80.42 3.92L80.42 3.92L80.42 3.92Q79.95 3.92 79.17 3.74ZM100.14-9.34L106.00-9.86L106.00-9.86Q103.91-5.28 103.91 0.03L103.91 0.03L103.91 0.03Q103.12 0.58 101.98 0.58L101.98 0.58L101.98 0.58Q100.83 0.58 100.11 0.04L100.11 0.04L100.11 0.04Q99.38-0.49 99.24-1.04L99.24-1.04L99.24-1.04Q98.51-0.29 97.34 0.15L97.34 0.15L97.34 0.15Q96.16 0.58 94.92 0.58L94.92 0.58L94.92 0.58Q93.67 0.58 92.58 0.17L92.58 0.17L92.58 0.17Q91.50-0.23 90.65-1.13L90.65-1.13L90.65-1.13Q88.80-3.10 88.80-6.84L88.80-6.84L88.80-6.84Q88.80-12.64 91.90-16.12L91.90-16.12L91.90-16.12Q95.09-19.72 100.75-19.72L100.75-19.72L100.75-19.72Q104.66-19.72 106.05-17.69L106.05-17.69L106.05-17.69Q106.49-17.05 106.49-16.28L106.49-16.28L106.49-16.28Q106.49-15.52 106.15-14.86L106.15-14.86L106.15-14.86Q105.82-14.21 105.30-13.69L105.30-13.69L105.30-13.69Q104.05-12.53 102.52-12.53L102.52-12.53L102.52-12.53Q101.91-12.53 101.33-12.73L101.33-12.73L101.33-12.73Q101.44-13.60 101.44-14.62L101.44-14.62L101.44-14.62Q101.44-15.63 101.37-16.10L101.37-16.10L101.37-16.10Q101.30-16.56 101.12-16.94L101.12-16.94L101.12-16.94Q100.75-17.72 99.92-17.72L99.92-17.72L99.92-17.72Q99.09-17.72 98.18-16.83L98.18-16.83L98.18-16.83Q97.27-15.95 96.54-14.50L96.54-14.50L96.54-14.50Q94.95-11.25 94.95-7.34L94.95-7.34L94.95-7.34Q94.95-5.54 95.64-4.26L95.64-4.26L95.64-4.26Q96.40-2.87 97.73-2.87L97.73-2.87L97.73-2.87Q98.19-2.87 98.61-3.10L98.61-3.10L98.61-3.10Q99.04-3.33 99.21-3.51L99.21-3.51L100.14-9.34ZM116.73-1.22L116.73-1.22L116.73-1.22Q115.33 0.58 111.88 0.58L111.88 0.58L111.88 0.58Q110.08 0.58 108.78-0.51L108.78-0.51L108.78-0.51Q107.47-1.59 107.47-3.16L107.47-3.16L107.47-3.16Q107.47-4.03 107.56-4.47L107.56-4.47L109.50-14.79L115.39-15.37L113.27-4.18L113.27-4.18Q113.16-3.54 113.16-3.16L113.16-3.16L113.16-3.16Q113.16-1.48 114.17-1.48L114.17-1.48L114.17-1.48Q115.30-1.48 116.12-3.02L116.12-3.02L116.12-3.02Q116.38-3.51 116.49-4.15L116.49-4.15L118.55-14.79L124.27-15.37L122.12-4.06L122.12-4.06Q122.03-3.63 122.03-3.16L122.03-3.16L122.03-3.16Q122.03-2.70 122.29-2.19L122.29-2.19L122.29-2.19Q122.55-1.68 123.40-1.57L123.40-1.57L123.40-1.57Q123.22-0.87 122.61-0.41L122.61-0.41L122.61-0.41Q121.34 0.58 119.96 0.58L119.96 0.58L119.96 0.58Q118.58 0.58 117.77 0.09L117.77 0.09L117.77 0.09Q116.96-0.41 116.73-1.22ZM138.10 0.58L138.10 0.58L138.10 0.58Q134.59 0.58 134.59-2.15L134.59-2.15L134.59-2.15Q134.62-2.90 134.85-4.18L134.85-4.18L135.37-6.84L135.37-6.84Q136.16-10.61 136.16-11.46L136.16-11.46L136.16-11.46Q136.16-13.14 135.17-13.14L135.17-13.14L135.17-13.14Q133.52-13.14 132.65-8.82L132.65-8.82L130.94 0L125.11 0.58L128.12-14.82L132.88-15.37L132.41-12.53L132.41-12.53Q133.78-15.37 137.95-15.37L137.95-15.37L137.95-15.37Q139.98-15.37 140.84-14.51L140.84-14.51L140.84-14.51Q141.69-13.66 141.69-11.75L141.69-11.75L141.69-11.75Q141.69-9.95 140.77-5.74L140.77-5.74L140.77-5.74Q140.33-3.86 140.33-3.15L140.33-3.15L140.33-3.15Q140.33-2.44 140.72-2.03L140.72-2.03L140.72-2.03Q141.11-1.62 141.69-1.57L141.69-1.57L141.69-1.57Q141.40-0.58 140.40 0L140.40 0L140.40 0Q139.40 0.58 138.10 0.58ZM153.32-1.22L153.32-1.22L153.32-1.22Q151.93 0.58 148.48 0.58L148.48 0.58L148.48 0.58Q146.68 0.58 145.38-0.51L145.38-0.51L145.38-0.51Q144.07-1.59 144.07-3.16L144.07-3.16L144.07-3.16Q144.07-4.03 144.16-4.47L144.16-4.47L146.10-14.79L151.99-15.37L149.87-4.18L149.87-4.18Q149.76-3.54 149.76-3.16L149.76-3.16L149.76-3.16Q149.76-1.48 150.77-1.48L150.77-1.48L150.77-1.48Q151.90-1.48 152.71-3.02L152.71-3.02L152.71-3.02Q152.98-3.51 153.09-4.15L153.09-4.15L155.15-14.79L160.86-15.37L158.72-4.06L158.72-4.06Q158.63-3.63 158.63-3.16L158.63-3.16L158.63-3.16Q158.63-2.70 158.89-2.19L158.89-2.19L158.89-2.19Q159.15-1.68 159.99-1.57L159.99-1.57L159.99-1.57Q159.82-0.87 159.21-0.41L159.21-0.41L159.21-0.41Q157.93 0.58 156.56 0.58L156.56 0.58L156.56 0.58Q155.18 0.58 154.37 0.09L154.37 0.09L154.37 0.09Q153.56-0.41 153.32-1.22ZM175.94-1.99L175.94-1.99L175.94-1.99Q174.73-0.75 173.06-0.09L173.06-0.09L173.06-0.09Q171.39 0.58 169.74 0.58L169.74 0.58L169.74 0.58Q168.08 0.58 167.50 0.29L167.50 0.29L166.61 5.22L160.72 5.80L164.72-14.79L169.45-15.28L169.07-13.28L169.07-13.28Q170.29-15.34 172.81-15.34L172.81-15.34L172.81-15.34Q175.65-15.34 177.16-13.51L177.16-13.51L177.16-13.51Q178.50-11.86 178.50-9.34L178.50-9.34L178.50-9.34Q178.50-6.82 177.83-5.02L177.83-5.02L177.83-5.02Q177.16-3.22 175.94-1.99ZM169.39-10.12L167.85-1.62L167.85-1.62Q168.46-1.10 169.22-1.10L169.22-1.10L169.22-1.10Q169.97-1.10 170.40-1.39L170.40-1.39L170.40-1.39Q170.84-1.68 171.16-2.26L171.16-2.26L171.16-2.26Q172.03-3.83 172.72-8.58L172.72-8.58L172.72-8.58Q172.93-9.98 172.93-11.34L172.93-11.34L172.93-11.34Q172.93-12.70 172.62-13.14L172.62-13.14L172.62-13.14Q172.32-13.57 171.74-13.57L171.74-13.57L171.74-13.57Q169.97-13.57 169.39-10.12L169.39-10.12ZM189.54-1.22L189.54-1.22L189.54-1.22Q188.15 0.58 184.70 0.58L184.70 0.58L184.70 0.58Q182.90 0.58 181.60-0.51L181.60-0.51L181.60-0.51Q180.29-1.59 180.29-3.16L180.29-3.16L180.29-3.16Q180.29-4.03 180.38-4.47L180.38-4.47L182.32-14.79L188.21-15.37L186.09-4.18L186.09-4.18Q185.98-3.54 185.98-3.16L185.98-3.16L185.98-3.16Q185.98-1.48 186.99-1.48L186.99-1.48L186.99-1.48Q188.12-1.48 188.94-3.02L188.94-3.02L188.94-3.02Q189.20-3.51 189.31-4.15L189.31-4.15L191.37-14.79L197.08-15.37L194.94-4.06L194.94-4.06Q194.85-3.63 194.85-3.16L194.85-3.16L194.85-3.16Q194.85-2.70 195.11-2.19L195.11-2.19L195.11-2.19Q195.37-1.68 196.21-1.57L196.21-1.57L196.21-1.57Q196.04-0.87 195.43-0.41L195.43-0.41L195.43-0.41Q194.16 0.58 192.78 0.58L192.78 0.58L192.78 0.58Q191.40 0.58 190.59 0.09L190.59 0.09L190.59 0.09Q189.78-0.41 189.54-1.22ZM207.73-8.15L207.73-8.15L207.73-8.15Q208.77-10.01 208.77-11.89L208.77-11.89L208.77-11.89Q208.77-13.14 207.87-13.14L207.87-13.14L207.87-13.14Q207.18-13.14 206.45-11.95L206.45-11.95L206.45-11.95Q205.70-10.76 205.47-9.22L205.47-9.22L203.96 0L197.95 0.58L200.91-14.79L205.70-15.37L205.18-12.44L205.18-12.44Q206.60-15.37 209.79-15.37L209.79-15.37L209.79-15.37Q211.47-15.37 212.38-14.50L212.38-14.50L212.38-14.50Q213.30-13.63 213.30-11.85L213.30-11.85L213.30-11.85Q213.30-10.06 212.12-8.93L212.12-8.93L212.12-8.93Q210.95-7.80 208.95-7.80L208.95-7.80L208.95-7.80Q208.08-7.80 207.73-8.15Z" fill="url(#editing-outline-gradient)"></path></g></g><style>text {
  font-size: 64px;
  font-family: Arial Black;
  dominant-baseline: central;
  text-anchor: middle;
}</style></svg>