<svg width="750.167333984375px" height="135.2px" xmlns="http://www.w3.org/2000/svg" viewBox="-125.08366699218749 7.400000000000006 750.167333984375 135.2" style="background: rgba(0, 0, 0, 0);" preserveAspectRatio="xMidYMid"><defs><linearGradient id="editing-outline-gradient" x1="-0.41354545764260087" x2="1.4135454576426008" y1="0.09326335692419985" y2="0.9067366430758002"><stop offset="0" stop-color="#ee4208"></stop><stop offset="1" stop-color="#4139ff"></stop></linearGradient><filter id="editing-outline" x="-100%" y="-100%" width="300%" height="300%"><feMorphology in="SourceGraphic" operator="dilate" radius="1" result="outline"></feMorphology><feComposite operator="out" in="outline" in2="SourceAlpha"></feComposite></filter></defs><g filter="url(#editing-outline)"><g transform="translate(-19.190324544906616, 107.19500350952148)"><path d="M30.81-23.51L45.55-24.82L45.55-24.82Q40.30-13.29 40.30 0.07L40.30 0.07L40.30 0.07Q38.32 1.46 35.44 1.46L35.44 1.46L35.44 1.46Q32.56 1.46 30.73 0.11L30.73 0.11L30.73 0.11Q28.91-1.24 28.54-2.63L28.54-2.63L28.54-2.63Q26.72-0.73 23.76 0.36L23.76 0.36L23.76 0.36Q20.80 1.46 17.67 1.46L17.67 1.46L17.67 1.46Q14.53 1.46 11.79 0.44L11.79 0.44L11.79 0.44Q9.05-0.58 6.93-2.85L6.93-2.85L6.93-2.85Q2.26-7.81 2.26-17.23L2.26-17.23L2.26-17.23Q2.26-31.83 10.07-40.59L10.07-40.59L10.07-40.59Q18.10-49.64 32.34-49.64L32.34-49.64L32.34-49.64Q42.19-49.64 45.70-44.53L45.70-44.53L45.70-44.53Q46.79-42.92 46.79-40.99L46.79-40.99L46.79-40.99Q46.79-39.05 45.95-37.41L45.95-37.41L45.95-37.41Q45.11-35.77 43.80-34.46L43.80-34.46L43.80-34.46Q40.66-31.54 36.79-31.54L36.79-31.54L36.79-31.54Q35.26-31.54 33.80-32.05L33.80-32.05L33.80-32.05Q34.09-34.24 34.09-36.79L34.09-36.79L34.09-36.79Q34.09-39.35 33.91-40.52L33.91-40.52L33.91-40.52Q33.73-41.68 33.29-42.63L33.29-42.63L33.29-42.63Q32.34-44.60 30.26-44.60L30.26-44.60L30.26-44.60Q28.18-44.60 25.88-42.38L25.88-42.38L25.88-42.38Q23.58-40.15 21.75-36.50L21.75-36.50L21.75-36.50Q17.74-28.32 17.74-18.47L17.74-18.47L17.74-18.47Q17.74-13.94 19.49-10.73L19.49-10.73L19.49-10.73Q21.39-7.23 24.75-7.23L24.75-7.23L24.75-7.23Q25.91-7.23 26.97-7.81L26.97-7.81L26.97-7.81Q28.03-8.39 28.47-8.83L28.47-8.83L30.81-23.51ZM46.94-4.31L46.94-4.31L46.94-4.31Q46.94-7.08 49.09-8.61L49.09-8.61L49.09-8.61Q51.25-10.15 54.31-10.15L54.31-10.15L54.31-10.15Q57.38-10.15 59.24-8.61L59.24-8.61L59.24-8.61Q61.10-7.08 61.10-4.31L61.10-4.31L61.10-4.31Q61.10-1.53 59.02-0.04L59.02-0.04L59.02-0.04Q56.94 1.46 53.87 1.46L53.87 1.46L53.87 1.46Q50.81 1.46 48.87-0.04L48.87-0.04L48.87-0.04Q46.94-1.53 46.94-4.31ZM83.00 0L67.09 0L76.36-48.18L92.42-48.18L83.00 0ZM91.83-4.31L91.83-4.31L91.83-4.31Q91.83-7.08 93.99-8.61L93.99-8.61L93.99-8.61Q96.14-10.15 99.21-10.15L99.21-10.15L99.21-10.15Q102.27-10.15 104.13-8.61L104.13-8.61L104.13-8.61Q106.00-7.08 106.00-4.31L106.00-4.31L106.00-4.31Q106.00-1.53 103.92-0.04L103.92-0.04L103.92-0.04Q101.84 1.46 98.77 1.46L98.77 1.46L98.77 1.46Q95.70 1.46 93.77-0.04L93.77-0.04L93.77-0.04Q91.83-1.53 91.83-4.31ZM143.96-11.24L143.96-11.24L143.96-11.24Q145.34-9.49 145.34-6.64L145.34-6.64L145.34-6.64Q145.34-2.70 142.42-0.62L142.42-0.62L142.42-0.62Q139.50 1.46 134.90 1.46L134.90 1.46L134.90 1.46Q132.28 1.46 128.26 0.88L128.26 0.88L128.26 0.88Q120.38-0.36 117.97-0.36L117.97-0.36L117.97-0.36Q115.56-0.36 114.61-0.26L114.61-0.26L114.61-0.26Q113.66-0.15 112.13 0L112.13 0L121.11-48.18L152.57-48.18L152.57-48.18Q152.57-43.73 150.42-41.39L150.42-41.39L150.42-41.39Q148.26-39.05 144.03-39.05L144.03-39.05L144.03-39.05Q139.79-39.05 135.49-41.03L135.49-41.03L133.22-28.25L146.22-28.25L146.22-28.25Q146.22-24.38 144.32-22.23L144.32-22.23L144.32-22.23Q142.42-20.07 139.25-20.07L139.25-20.07L139.25-20.07Q136.07-20.07 134.10-20.80L134.10-20.80L134.10-20.80Q132.13-21.54 131.91-21.75L131.91-21.75L129.28-7.96L129.28-7.96Q131.03-7.74 134.32-7.74L134.32-7.74L134.32-7.74Q139.94-7.74 143.96-11.24ZM149.87-4.31L149.87-4.31L149.87-4.31Q149.87-7.08 152.02-8.61L152.02-8.61L152.02-8.61Q154.18-10.15 157.24-10.15L157.24-10.15L157.24-10.15Q160.31-10.15 162.17-8.61L162.17-8.61L162.17-8.61Q164.03-7.08 164.03-4.31L164.03-4.31L164.03-4.31Q164.03-1.53 161.95-0.04L161.95-0.04L161.95-0.04Q159.87 1.46 156.80 1.46L156.80 1.46L156.80 1.46Q153.74 1.46 151.80-0.04L151.80-0.04L151.80-0.04Q149.87-1.53 149.87-4.31ZM176.66-35.55L176.66-35.55L176.66-35.55Q174.18-37.45 174.18-41.50L174.18-41.50L174.18-41.50Q174.18-45.55 176.84-47.67L176.84-47.67L176.84-47.67Q179.51-49.79 184.11-49.79L184.11-49.79L184.11-49.79Q187.03-49.79 193.96-48.76L193.96-48.76L198.92-48.03L198.92-48.03Q201.41-47.74 204.00-47.74L204.00-47.74L204.00-47.74Q206.59-47.74 208.34-48.84L208.34-48.84L208.34-48.84Q210.97-46.50 210.97-43.14L210.97-43.14L210.97-43.14Q210.97-39.78 207.98-37.38L207.98-37.38L207.98-37.38Q204.91-34.82 200.97-34.82L200.97-34.82L200.97-34.82Q199.07-34.82 196.00-35.33L196.00-35.33L196.00-35.33Q192.43-24.09 192.43-16.28L192.43-16.28L192.43-16.28Q192.43-8.47 196.37-4.38L196.37-4.38L196.37-4.38Q194.54-1.09 191.84 0.18L191.84 0.18L191.84 0.18Q189.14 1.46 185.09 1.46L185.09 1.46L185.09 1.46Q181.04 1.46 178.52-0.77L178.52-0.77L178.52-0.77Q176.00-2.99 176.00-7.59L176.00-7.59L176.00-7.59Q176.00-12.92 178.92-21.68L178.92-21.68L178.92-21.68Q181.84-30.37 186.22-37.01L186.22-37.01L186.22-37.01Q184.11-37.23 181.92-37.23L181.92-37.23L181.92-37.23Q177.39-37.23 176.66-35.55ZM199.29 9.42L199.29 9.42L199.29 9.42Q204.91 3.36 204.91-4.23L204.91-4.23L204.91-4.23Q204.91-6.57 204.11-8.76L204.11-8.76L204.11-8.76Q204.98-9.34 206.74-9.75L206.74-9.75L206.74-9.75Q208.49-10.15 209.80-10.15L209.80-10.15L209.80-10.15Q213.01-10.15 214.91-8.43L214.91-8.43L214.91-8.43Q216.81-6.72 216.81-3.72L216.81-3.72L216.81-3.72Q216.81-0.73 215.64 1.68L215.64 1.68L215.64 1.68Q214.47 4.09 212.50 5.91L212.50 5.91L212.50 5.91Q208.27 9.85 202.43 9.85L202.43 9.85L202.43 9.85Q201.26 9.85 199.29 9.42ZM252.07-23.51L266.81-24.82L266.81-24.82Q261.56-13.29 261.56 0.07L261.56 0.07L261.56 0.07Q259.59 1.46 256.70 1.46L256.70 1.46L256.70 1.46Q253.82 1.46 252.00 0.11L252.00 0.11L252.00 0.11Q250.17-1.24 249.81-2.63L249.81-2.63L249.81-2.63Q247.98-0.73 245.02 0.36L245.02 0.36L245.02 0.36Q242.07 1.46 238.93 1.46L238.93 1.46L238.93 1.46Q235.79 1.46 233.05 0.44L233.05 0.44L233.05 0.44Q230.31-0.58 228.20-2.85L228.20-2.85L228.20-2.85Q223.53-7.81 223.53-17.23L223.53-17.23L223.53-17.23Q223.53-31.83 231.34-40.59L231.34-40.59L231.34-40.59Q239.37-49.64 253.60-49.64L253.60-49.64L253.60-49.64Q263.46-49.64 266.96-44.53L266.96-44.53L266.96-44.53Q268.06-42.92 268.06-40.99L268.06-40.99L268.06-40.99Q268.06-39.05 267.22-37.41L267.22-37.41L267.22-37.41Q266.38-35.77 265.06-34.46L265.06-34.46L265.06-34.46Q261.92-31.54 258.05-31.54L258.05-31.54L258.05-31.54Q256.52-31.54 255.06-32.05L255.06-32.05L255.06-32.05Q255.35-34.24 255.35-36.79L255.35-36.79L255.35-36.79Q255.35-39.35 255.17-40.52L255.17-40.52L255.17-40.52Q254.99-41.68 254.55-42.63L254.55-42.63L254.55-42.63Q253.60-44.60 251.52-44.60L251.52-44.60L251.52-44.60Q249.44-44.60 247.14-42.38L247.14-42.38L247.14-42.38Q244.84-40.15 243.02-36.50L243.02-36.50L243.02-36.50Q239.00-28.32 239.00-18.47L239.00-18.47L239.00-18.47Q239.00-13.94 240.75-10.73L240.75-10.73L240.75-10.73Q242.65-7.23 246.01-7.23L246.01-7.23L246.01-7.23Q247.18-7.23 248.24-7.81L248.24-7.81L248.24-7.81Q249.29-8.39 249.73-8.83L249.73-8.83L252.07-23.51ZM293.82-3.07L293.82-3.07L293.82-3.07Q290.32 1.46 281.63 1.46L281.63 1.46L281.63 1.46Q277.11 1.46 273.82-1.28L273.82-1.28L273.82-1.28Q270.54-4.01 270.54-7.96L270.54-7.96L270.54-7.96Q270.54-10.15 270.76-11.24L270.76-11.24L275.65-37.23L290.47-38.69L285.14-10.51L285.14-10.51Q284.85-8.91 284.85-7.96L284.85-7.96L284.85-7.96Q284.85-3.72 287.40-3.72L287.40-3.72L287.40-3.72Q290.25-3.72 292.29-7.59L292.29-7.59L292.29-7.59Q292.95-8.83 293.24-10.44L293.24-10.44L298.42-37.23L312.80-38.69L307.40-10.22L307.40-10.22Q307.18-9.13 307.18-7.96L307.18-7.96L307.18-7.96Q307.18-6.79 307.84-5.51L307.84-5.51L307.84-5.51Q308.50-4.23 310.61-3.94L310.61-3.94L310.61-3.94Q310.18-2.19 308.64-1.02L308.64-1.02L308.64-1.02Q305.43 1.46 301.96 1.46L301.96 1.46L301.96 1.46Q298.50 1.46 296.45 0.22L296.45 0.22L296.45 0.22Q294.41-1.02 293.82-3.07ZM347.63 1.46L347.63 1.46L347.63 1.46Q338.79 1.46 338.79-5.40L338.79-5.40L338.79-5.40Q338.87-7.30 339.45-10.51L339.45-10.51L340.76-17.23L340.76-17.23Q342.73-26.72 342.73-28.83L342.73-28.83L342.73-28.83Q342.73-33.07 340.25-33.07L340.25-33.07L340.25-33.07Q336.09-33.07 333.90-22.19L333.90-22.19L329.59 0L314.92 1.46L322.51-37.30L334.49-38.69L333.32-31.54L333.32-31.54Q336.75-38.69 347.26-38.69L347.26-38.69L347.26-38.69Q352.37-38.69 354.52-36.54L354.52-36.54L354.52-36.54Q356.68-34.38 356.68-29.56L356.68-29.56L356.68-29.56Q356.68-25.04 354.34-14.45L354.34-14.45L354.34-14.45Q353.25-9.71 353.25-7.92L353.25-7.92L353.25-7.92Q353.25-6.13 354.23-5.11L354.23-5.11L354.23-5.11Q355.22-4.09 356.68-3.94L356.68-3.94L356.68-3.94Q355.95-1.46 353.43 0L353.43 0L353.43 0Q350.91 1.46 347.63 1.46ZM385.95-3.07L385.95-3.07L385.95-3.07Q382.45 1.46 373.76 1.46L373.76 1.46L373.76 1.46Q369.23 1.46 365.95-1.28L365.95-1.28L365.95-1.28Q362.66-4.01 362.66-7.96L362.66-7.96L362.66-7.96Q362.66-10.15 362.88-11.24L362.88-11.24L367.77-37.23L382.59-38.69L377.26-10.51L377.26-10.51Q376.97-8.91 376.97-7.96L376.97-7.96L376.97-7.96Q376.97-3.72 379.53-3.72L379.53-3.72L379.53-3.72Q382.37-3.72 384.42-7.59L384.42-7.59L384.42-7.59Q385.07-8.83 385.37-10.44L385.37-10.44L390.55-37.23L404.93-38.69L399.53-10.22L399.53-10.22Q399.31-9.13 399.31-7.96L399.31-7.96L399.31-7.96Q399.31-6.79 399.97-5.51L399.97-5.51L399.97-5.51Q400.62-4.23 402.74-3.94L402.74-3.94L402.74-3.94Q402.30-2.19 400.77-1.02L400.77-1.02L400.77-1.02Q397.56 1.46 394.09 1.46L394.09 1.46L394.09 1.46Q390.62 1.46 388.58 0.22L388.58 0.22L388.58 0.22Q386.53-1.02 385.95-3.07ZM442.89-5.00L442.89-5.00L442.89-5.00Q439.82-1.90 435.63-0.22L435.63-0.22L435.63-0.22Q431.43 1.46 427.27 1.46L427.27 1.46L427.27 1.46Q423.11 1.46 421.65 0.73L421.65 0.73L419.38 13.14L404.57 14.60L414.64-37.23L426.54-38.47L425.59-33.43L425.59-33.43Q428.66-38.62 435.01-38.62L435.01-38.62L435.01-38.62Q442.16-38.62 445.96-34.02L445.96-34.02L445.96-34.02Q449.31-29.86 449.31-23.51L449.31-23.51L449.31-23.51Q449.31-17.15 447.64-12.63L447.64-12.63L447.64-12.63Q445.96-8.10 442.89-5.00ZM426.39-25.48L422.52-4.09L422.52-4.09Q424.06-2.77 425.95-2.77L425.95-2.77L425.95-2.77Q427.85-2.77 428.95-3.50L428.95-3.50L428.95-3.50Q430.04-4.23 430.85-5.69L430.85-5.69L430.85-5.69Q433.04-9.64 434.79-21.61L434.79-21.61L434.79-21.61Q435.30-25.11 435.30-28.54L435.30-28.54L435.30-28.54Q435.30-31.97 434.53-33.07L434.53-33.07L434.53-33.07Q433.77-34.16 432.31-34.16L432.31-34.16L432.31-34.16Q427.85-34.16 426.39-25.48L426.39-25.48ZM477.13-3.07L477.13-3.07L477.13-3.07Q473.62 1.46 464.94 1.46L464.94 1.46L464.94 1.46Q460.41 1.46 457.13-1.28L457.13-1.28L457.13-1.28Q453.84-4.01 453.84-7.96L453.84-7.96L453.84-7.96Q453.84-10.15 454.06-11.24L454.06-11.24L458.95-37.23L473.77-38.69L468.44-10.51L468.44-10.51Q468.15-8.91 468.15-7.96L468.15-7.96L468.15-7.96Q468.15-3.72 470.70-3.72L470.70-3.72L470.70-3.72Q473.55-3.72 475.60-7.59L475.60-7.59L475.60-7.59Q476.25-8.83 476.54-10.44L476.54-10.44L481.73-37.23L496.11-38.69L490.71-10.22L490.71-10.22Q490.49-9.13 490.49-7.96L490.49-7.96L490.49-7.96Q490.49-6.79 491.14-5.51L491.14-5.51L491.14-5.51Q491.80-4.23 493.92-3.94L493.92-3.94L493.92-3.94Q493.48-2.19 491.95-1.02L491.95-1.02L491.95-1.02Q488.74 1.46 485.27 1.46L485.27 1.46L485.27 1.46Q481.80 1.46 479.76 0.22L479.76 0.22L479.76 0.22Q477.71-1.02 477.13-3.07ZM522.90-20.51L522.90-20.51L522.90-20.51Q525.53-25.18 525.53-29.93L525.53-29.93L525.53-29.93Q525.53-33.07 523.26-33.07L523.26-33.07L523.26-33.07Q521.51-33.07 519.69-30.08L519.69-30.08L519.69-30.08Q517.79-27.08 517.21-23.21L517.21-23.21L513.41 0L498.30 1.46L505.74-37.23L517.79-38.69L516.48-31.32L516.48-31.32Q520.05-38.69 528.08-38.69L528.08-38.69L528.08-38.69Q532.32-38.69 534.62-36.50L534.62-36.50L534.62-36.50Q536.91-34.31 536.91-29.82L536.91-29.82L536.91-29.82Q536.91-25.33 533.96-22.48L533.96-22.48L533.96-22.48Q531.00-19.64 525.97-19.64L525.97-19.64L525.97-19.64Q523.77-19.64 522.90-20.51Z" fill="url(#editing-outline-gradient)"></path></g></g><style>text {
  font-size: 64px;
  font-family: Arial Black;
  dominant-baseline: central;
  text-anchor: middle;
}</style></svg>